<svg width="97" height="52" viewBox="0 0 97 52" fill="none" xmlns="http://www.w3.org/2000/svg">
<path fill-rule="evenodd" clip-rule="evenodd" d="M92.7219 11.7793C89.4799 14.5006 85.7197 18.5583 80.3926 25.0826C74.4424 32.3702 75.5479 31.2838 66.5493 38.6872C62.7259 41.8326 59.3994 44.7957 59.1567 45.2721C58.914 45.7486 58.6561 46.2015 58.5971 46.3255C58.538 46.4495 58.4734 47.3836 58.7512 47.7047C59.029 48.0259 59.2194 48.1733 59.4147 48.2751C60.5579 49.1475 63.4957 46.2043 63.5366 46.1708C64.03 45.7662 64.1007 45.7472 64.4833 45.4031C65.6646 44.6804 65.5194 44.8135 66.4514 43.8939C67.3835 42.9742 68.4037 41.978 68.7193 41.6798C70.1107 40.3647 78.2267 29.4564 78.2267 29.4564C78.4499 29.3059 78.7032 29.1335 78.7032 29.1335C78.9257 28.7387 78.9264 28.7326 78.9708 28.3305C78.9708 28.3305 78.9632 28.3988 79.2425 27.7408C79.7099 27.7924 80.4933 27.0402 85.8589 23.014C87.9029 21.4801 89.1805 20.0631 89.4188 19.775C89.6572 19.4869 89.8555 19.3634 90.1083 19.117C92.9305 16.3654 93.8863 14.8642 93.8863 14.8642L94.3472 14.3346C94.3472 14.3346 95.0851 13.8674 95.5007 13.2432C97.516 10.2153 95.7148 9.26689 92.7219 11.7793ZM52.0082 7.23637C49.7832 8.38093 44.8721 12.7255 42.053 16.0438C41.1027 17.1622 38.7171 20.0376 36.7518 22.4338C34.7866 24.83 32.4806 27.4225 31.6276 28.1951C30.148 29.5348 29.9954 29.5774 28.3262 29.1129C26.6571 28.6484 26.5761 28.6259 26.5761 28.6259L27.0036 26.9778C27.7686 24.028 30.6348 18.0615 33.8081 12.8123C35.1169 10.6472 36.0144 8.997 36.1401 8.52499C36.1988 8.30423 36.4177 7.82599 36.6264 7.46232C37.0624 6.70272 36.7981 5.91206 36.0821 5.83297C35.5931 5.77896 35.1015 6.29814 33.4193 8.64548C32.306 10.1992 28.3102 14.5126 22.8691 20.0344C15.8608 27.1456 17.0107 26.4909 12.2515 26.0813C8.83363 25.7873 7.76679 25.8587 6.00975 26.5004L3.89025 27.274C3.89025 27.274 1.71474 28.8503 1.69521 30.3146C1.67521 31.8144 3.04975 33.159 3.91334 33.4502C6.03362 34.1657 7.2219 34.2144 8.02441 33.6184C8.35745 33.3713 8.86823 33.146 9.15969 33.1182C10.2638 33.0125 12.9996 31.4249 14.8393 29.8213C15.8904 28.9049 16.8775 28.3136 16.8775 28.3136C16.8775 28.3136 18.6696 28.9706 21.7955 29.6972C23.7424 30.1494 24.3972 30.5134 25.2024 31.5915C26.3516 33.1311 27.2736 33.1705 29.8813 31.7922C30.7659 31.3247 31.9111 30.9889 32.4262 31.0458C32.9418 31.1027 33.8811 31.0152 34.5139 30.8517C35.4084 30.6199 35.8022 30.7093 36.285 31.2539C37.0716 32.1415 37.8003 32.217 39.5062 31.589C40.3499 31.2785 41.303 31.2351 42.0103 31.4743C43.2937 31.9082 45.6081 31.1169 47.8566 29.4746C49.4673 28.2981 52.3084 27.0253 52.5768 27.3599C52.8531 27.7048 50.2646 30.1178 49.873 30.4939C49.7887 30.685 49.6929 30.771 50.012 31.1699C50.5422 31.8313 50.6845 31.8478 51.6501 31.3574C52.2315 31.0618 53.1624 30.3284 53.7184 29.7274C54.7421 28.6213 58.424 26.4803 59.1624 26.5619C59.4061 26.5888 59.3771 27.3644 59.0884 28.534C58.727 29.9989 58.7476 30.6015 59.1736 31.0427C59.5522 31.4349 59.6231 31.5382 60.0387 31.404C60.2644 31.3434 60.6709 31.1408 61.1583 30.9141C62.4102 30.5065 65.2306 29.5703 65.6185 28.8455C65.794 28.517 65.8735 28.5898 65.8436 29.0517C65.8176 29.4517 62.847 32.1211 59.0878 35.1228C50.839 41.7087 49.7433 44.1882 49.7433 44.1882C49.4941 44.5738 49.4941 44.5738 49.4941 44.5738C49.4941 44.5738 49.1954 45.0003 49.4989 45.3792C50.5164 46.6493 54.4724 44.6866 57.7944 41.2622C60.3863 38.5911 65.2545 32.9374 66.2477 31.4452C66.757 30.6797 67.5694 30.2637 69.1784 29.9444C72.9452 29.197 79.0539 27.9525 78.8794 27.2875C78.7489 26.7896 77.2241 27.3112 75.9989 27.1821C75.1728 27.2912 73.5696 27.293 72.8705 27.4501C72.1715 27.6071 71.1755 27.7884 70.6456 27.9617C70.1155 28.1345 69.5764 28.1448 69.4479 27.9839C69.0749 27.5188 70.4439 26.9755 70.8971 26.6124L71.7226 25.8834C72.0529 25.5005 72.2324 24.5519 73.6195 23.6726C75.935 22.2058 81.3619 17.0671 83.7096 14.119C85.8039 11.4895 86.3021 10.0241 85.2182 9.68165C83.8903 9.26229 78.9523 13.6964 73.2309 20.4466C70.3742 23.8165 66.2913 27.1642 63.3873 28.5168C61.9616 29.1807 60.6921 29.5946 60.5658 29.4368C60.439 29.279 60.6413 28.5283 61.0144 27.7688C61.5451 26.69 61.6002 26.2469 61.2673 25.7416C60.6427 24.7938 59.4812 24.8056 57.0891 25.7846C55.4624 26.4503 54.8633 26.5295 54.5372 26.1225C53.5397 24.8773 51.0378 25.6083 46.6005 28.4421C43.8471 30.201 42.989 30.5251 43.0717 29.7765C43.1643 28.9389 43.1603 28.9748 43.8722 28.1408C44.1806 27.2192 44.037 27.8383 44.1167 25.9267C44.2294 24.9062 44.2958 25.1431 44.0045 24.8219C43.5671 24.3396 42.8495 25.4335 42.3956 25.2594C41.1017 24.7641 37.2486 26.7191 36.5194 28.2413C36.2767 28.7479 34.0784 29.3376 33.7812 28.9759C33.6708 28.8418 34.7168 27.4889 36.1993 25.8467C38.2019 23.6286 41.7521 19.2804 41.7821 19.0085C41.7967 18.8767 42.6402 17.9725 43.6568 16.9989C44.6733 16.0254 45.5195 15.0975 45.5372 14.9367C45.6241 14.1505 52.0053 8.48136 53.44 7.91553C54.0935 7.65801 54.6579 7.1762 54.6944 6.84516C54.7906 5.97408 54.3342 6.04058 52.0082 7.23637ZM81.1265 13.8039C80.2566 14.6734 79.2 15.8119 78.7792 16.3336C78.3584 16.8552 77.5768 17.6803 77.0421 18.1675C76.5078 18.6547 76.0535 19.2552 76.0332 19.5021C75.9942 19.9717 79.5855 16.8474 79.6626 16.3444C79.6871 16.1859 80.1896 15.6837 80.78 15.2283C82.1991 14.1335 83.6261 12.324 83.1146 12.2675C82.8913 12.2429 81.9968 12.9345 81.1265 13.8039ZM90.2181 15.8411C86.2892 19.526 83.6872 22.5361 84.0452 22.9826C84.3049 23.3067 93.0806 14.6777 93.1524 14.0274C93.2291 13.3327 92.2425 13.9426 90.2181 15.8411ZM26.8584 18.5219C25.4563 20.0313 23.0149 22.5031 21.4332 24.0149C18.2 27.1065 18.2069 27.1519 22.0536 28.004L24.536 28.5538L25.0064 26.9023C25.4534 25.3312 27.0485 21.6293 28.8867 17.8969C29.3511 16.9537 29.6588 16.0907 29.5699 15.9797C29.4805 15.8686 28.2605 17.0126 26.8584 18.5219ZM39.3674 27.901C37.7618 29.1875 37.4977 29.5926 37.9215 30.1212C38.4897 30.8309 42.418 28.2136 42.5478 27.0388C42.631 26.2857 40.7462 26.7968 39.3674 27.901ZM12.897 27.2773C12.5532 27.3984 11.4233 27.6545 10.231 27.6278C7.43665 27.5645 4.87777 28.5231 4.39811 29.8133C3.44349 32.3811 5.40519 32.92 9.27075 31.1514C12.3543 29.7406 14.5467 28.0941 14.2299 27.427C14.2536 26.9664 13.8262 27.0953 12.897 27.2773ZM26.8403 30.842C26.8156 31.0665 26.7733 31.4489 27.4901 31.5281C28.4062 31.6293 28.8594 31.2654 28.6779 31.0388C28.5188 30.608 27.8716 30.5427 27.5218 30.5041C27.172 30.4654 26.8651 30.6175 26.8403 30.842ZM56.9319 38.6165C51.7747 43.0416 51.0006 43.8399 51.7823 43.9263C52.7505 44.0332 60.0075 37.2556 59.5441 36.6772C59.4653 36.5788 58.2898 37.4513 56.9319 38.6165ZM66.3919 40.4939C60.3994 45.7821 60.1129 46.086 61.0285 46.1871C61.471 46.236 65.6584 42.8064 67.252 41.0901C70.273 37.8366 69.786 37.499 66.3919 40.4939Z" fill="black"/>
<path d="M10.7666 38.8249C10.1092 38.7984 9.59777 38.6237 9.23246 38.3008C8.8718 37.978 8.70282 37.5346 8.72551 36.9703C8.74783 36.4155 8.93099 35.9838 9.275 35.6754C9.62367 35.3671 10.1127 35.2257 10.7422 35.251C11.1432 35.2671 11.4829 35.3579 11.7611 35.5232C12.0442 35.684 12.2527 35.9002 12.3866 36.1718C12.5253 36.4389 12.588 36.738 12.5747 37.0691L12.5564 37.5237L9.87753 37.416C9.91666 37.6044 10.0278 37.7443 10.2109 37.8357C10.3941 37.9272 10.6465 37.9794 10.9683 37.9923C11.1874 38.0011 11.412 37.9915 11.642 37.9633C11.8766 37.9354 12.0792 37.8922 12.2497 37.8337L12.217 38.645C12.0417 38.708 11.8226 38.7552 11.5598 38.7867C11.3015 38.823 11.0371 38.8357 10.7666 38.8249ZM11.4263 36.7077C11.4149 36.5251 11.346 36.3798 11.2196 36.272C11.0932 36.1642 10.9157 36.1057 10.6872 36.0965C10.4634 36.0875 10.284 36.134 10.1492 36.236C10.0145 36.3333 9.93426 36.4702 9.90848 36.6466L11.4263 36.7077ZM14.601 40.2611C14.4518 40.2551 14.2961 40.2372 14.1338 40.2073C13.9713 40.1821 13.8512 40.1492 13.7735 40.1087L13.8103 39.1925C13.9433 39.2539 14.096 39.288 14.2686 39.295C14.4224 39.3012 14.5427 39.271 14.6295 39.2044C14.7207 39.1427 14.7949 39.0406 14.852 38.8981L14.9449 38.6777L13.6167 35.4717L14.8477 35.5212L15.6342 37.7386L16.5473 35.5896L17.7783 35.6391L16.2522 39.0945C16.0721 39.5076 15.8498 39.8093 15.5853 39.9995C15.3255 40.1898 14.9974 40.2771 14.601 40.2611ZM20.5904 39.22C19.9329 39.1935 19.4215 39.0188 19.0562 38.6959C18.6956 38.3731 18.5266 37.9297 18.5493 37.3654C18.5716 36.8106 18.7548 36.3789 19.0988 36.0705C19.4474 35.7622 19.9365 35.6208 20.566 35.6461C20.967 35.6622 21.3067 35.753 21.5849 35.9183C21.868 36.0791 22.0765 36.2953 22.2103 36.5669C22.349 36.8341 22.4117 37.1331 22.3984 37.4642L22.3801 37.9188L19.7013 37.8111C19.7404 37.9995 19.8516 38.1394 20.0347 38.2308C20.2179 38.3223 20.4703 38.3745 20.792 38.3874C21.0112 38.3962 21.2358 38.3866 21.4657 38.3585C21.7004 38.3305 21.903 38.2873 22.0734 38.2288L22.0408 39.0401C21.8655 39.1031 21.6464 39.1504 21.3836 39.1818C21.1252 39.2181 20.8609 39.2309 20.5904 39.22ZM21.25 37.1028C21.2387 36.9202 21.1698 36.7749 21.0434 36.6671C20.9169 36.5593 20.7395 36.5008 20.511 36.4916C20.2872 36.4826 20.1078 36.5291 19.973 36.6311C19.8383 36.7284 19.758 36.8653 19.7323 37.0417L21.25 37.1028ZM23.7205 35.8781L24.9515 35.9276L25.4127 37.8727L26.0286 35.9709L27.0218 36.0108L27.483 37.9559L28.099 36.0542L29.33 36.1037L28.0689 39.4157L26.9637 39.3712L26.4662 37.4597L25.8167 39.3251L24.7116 39.2806L23.7205 35.8781ZM32.5589 39.7013C31.9015 39.6749 31.3901 39.5002 31.0248 39.1773C30.6641 38.8545 30.4951 38.411 30.5178 37.8468C30.5401 37.2919 30.7233 36.8603 31.0673 36.5519C31.416 36.2436 31.905 36.1022 32.5345 36.1275C32.9355 36.1436 33.2752 36.2343 33.5534 36.3996C33.8365 36.5605 34.045 36.7767 34.1789 37.0483C34.3176 37.3154 34.3803 37.6145 34.367 37.9456L34.3487 38.4002L31.6698 38.2925C31.709 38.4809 31.8201 38.6208 32.0032 38.7122C32.1864 38.8036 32.4388 38.8558 32.7606 38.8688C32.9797 38.8776 33.2043 38.8679 33.4343 38.8398C33.6689 38.8119 33.8715 38.7687 34.042 38.7101L34.0093 39.5215C33.834 39.5845 33.6149 39.6317 33.3521 39.6632C33.0938 39.6995 32.8294 39.7122 32.5589 39.7013ZM33.2186 37.5841C33.2072 37.4015 33.1383 37.2563 33.0119 37.1485C32.8855 37.0406 32.708 36.9821 32.4795 36.9729C32.2557 36.9639 32.0764 37.0104 31.9415 37.1124C31.8068 37.2098 31.7266 37.3467 31.7008 37.5231L33.2186 37.5841ZM36.9556 39.8782C36.536 39.8613 36.1996 39.7474 35.9466 39.5363C35.6984 39.3209 35.5816 39.0313 35.5962 38.6676C35.6114 38.2899 35.7466 38.0057 36.0018 37.8152C36.2618 37.6201 36.625 37.532 37.0913 37.5507C37.2731 37.5581 37.4542 37.5864 37.6343 37.6356C37.8147 37.6803 37.9688 37.7378 38.0967 37.8084L38.0996 37.7384C38.114 37.3794 37.8275 37.188 37.2399 37.1644C36.8296 37.1479 36.451 37.2121 36.1043 37.3569L36.1383 36.5106C36.2903 36.4467 36.4884 36.3986 36.7326 36.3664C36.9769 36.3295 37.2297 36.3163 37.4908 36.3268C38.1156 36.3519 38.5815 36.4968 38.8885 36.7613C39.2003 37.0214 39.3472 37.3753 39.3292 37.8229L39.247 39.8652L38.093 39.8188L38.1045 39.5321C37.9737 39.6482 37.8113 39.7374 37.6173 39.7997C37.4233 39.862 37.2028 39.8881 36.9556 39.8782ZM37.3497 39.1374C37.4943 39.1432 37.6306 39.1207 37.7588 39.0698C37.8871 39.0142 37.9858 38.9411 38.0548 38.8505L38.0666 38.5568C37.8716 38.4135 37.6458 38.3367 37.3894 38.3263C37.2262 38.3198 37.0989 38.3497 37.0074 38.4161C36.916 38.4825 36.8676 38.5833 36.8622 38.7185C36.8571 38.8444 36.8951 38.944 36.9763 39.0173C37.062 39.0908 37.1865 39.1308 37.3497 39.1374ZM40.8842 36.5684L42.0733 36.6162L42.0564 37.0359C42.193 36.8919 42.3817 36.7851 42.6227 36.7154C42.8639 36.641 43.1291 36.6096 43.4182 36.6212L43.3802 37.5655C43.0724 37.5531 42.7979 37.5864 42.5565 37.6655C42.3198 37.7447 42.1536 37.8711 42.0579 38.0447L41.9802 39.9752L40.7492 39.9257L40.8842 36.5684Z" fill="black"/>
</svg>
