<svg width="84" height="19" viewBox="0 0 84 19" fill="none" xmlns="http://www.w3.org/2000/svg">
<path fill-rule="evenodd" clip-rule="evenodd" d="M16.4822 10.1121L17.4192 6.14155H6.17563C4.11684 6.1267 2.83316 6.96565 2.42852 8.65099L0 18.7155H10.2011C13.3238 18.7095 14.6773 18.1638 15.4057 14.6751H9.71558C9.40687 15.3046 8.91103 15.8232 8.29603 16.1599C7.68103 16.4966 6.97696 16.6348 6.28031 16.5557L7.77187 10.1463C8.16784 8.8455 9.3013 8.24166 11.1723 8.33471C11.0238 8.92866 10.8735 9.52063 10.7216 10.1106L16.4822 10.1121Z" fill="black"/>
<path fill-rule="evenodd" clip-rule="evenodd" d="M33.8233 6.14148H22.4855C20.4267 6.1296 19.1445 6.96633 18.7391 8.64943L16.3091 18.7154H26.511C29.6337 18.7094 31.3368 18.2907 31.8744 14.675H31.8669L33.8233 6.14148ZM26.0195 14.6795C25.71 15.3067 25.2145 15.8231 24.6006 16.1582C23.9867 16.4934 23.2843 16.6308 22.5894 16.5519L24.0817 10.1432C24.4752 8.84296 25.6087 8.23936 27.4821 8.33241L26.0677 14.4635L26.018 14.6862L26.0195 14.6795Z" fill="black"/>
<path fill-rule="evenodd" clip-rule="evenodd" d="M37.1085 0L33.5062 15.1858C32.9345 17.6581 33.6851 18.7161 35.4544 18.7168H41.0093L41.1355 17.938H40.6819C39.3455 17.9563 38.8753 17.1072 39.2712 15.3907L42.8802 0H37.1085Z" fill="black"/>
<path fill-rule="evenodd" clip-rule="evenodd" d="M58.3789 10.112L59.3159 6.14148H48.0738C46.015 6.1296 44.7328 6.96633 44.3267 8.64943L41.8982 18.7161H52.0993C55.222 18.7102 56.5755 18.1645 57.3038 14.6758H51.613C51.3043 15.3053 50.8085 15.8239 50.1935 16.1606C49.5785 16.4973 48.8744 16.6355 48.1778 16.5564L49.6701 10.1477C50.0636 8.84742 51.197 8.24381 53.0705 8.33687L52.619 10.1128L58.3789 10.112Z" fill="black"/>
<path fill-rule="evenodd" clip-rule="evenodd" d="M74.6525 10.112L75.5895 6.14148H64.3504C62.2917 6.1296 61.0095 6.96633 60.6033 8.64943L58.1748 18.7161H68.3752C71.4979 18.7102 72.8514 18.1645 73.5797 14.6758H67.8889C67.5802 15.3053 67.0844 15.8239 66.4694 16.1606C65.8544 16.4973 65.1503 16.6355 64.4536 16.5564L65.9459 10.1477C66.3394 8.84742 67.4729 8.24381 69.3463 8.33687L68.8949 10.1128L74.6525 10.112Z" fill="black"/>
<path fill-rule="evenodd" clip-rule="evenodd" d="M78.2282 0.970947L77.3625 4.52573H80.8416C81.4371 4.62224 82.0472 4.49308 82.5525 4.16353C83.0579 3.83398 83.422 3.32775 83.5738 2.74389L84 0.97169L78.2282 0.970947ZM76.9728 6.12123L74.764 15.1856C74.1923 17.658 74.9429 18.7159 76.7122 18.7167H82.2671L82.3933 17.9378H81.9397C80.6033 17.9562 80.1331 17.1073 80.5291 15.3913L82.7564 6.12197L76.9728 6.12123Z" fill="black"/>
</svg>
