<svg width="43" height="43" viewBox="0 0 43 43" fill="none" xmlns="http://www.w3.org/2000/svg">
<g clip-path="url(#clip0_2928_104)">
<path d="M0.90156 21.0361C0.90057 24.6137 1.83536 28.1069 3.61286 31.186L0.731567 41.706L11.4975 38.8832C14.4753 40.5042 17.8116 41.3536 21.202 41.3538H21.2109C32.4032 41.3538 41.5139 32.2463 41.5187 21.0521C41.5209 15.6277 39.4103 10.5269 35.5757 6.68938C31.7418 2.85217 26.6429 0.737827 21.2101 0.735352C10.0165 0.735352 0.906346 9.84233 0.901725 21.0361" fill="#1FAF39"/>
<path d="M0.176594 21.0289C0.175439 24.7352 1.14374 28.3534 2.98461 31.5427L0 42.4399L11.152 39.5158C14.2247 41.1912 17.6843 42.0745 21.2047 42.0758H21.2137C32.8076 42.0758 42.2456 32.6407 42.2506 21.0457C42.2525 15.4264 40.0661 10.1423 36.0945 6.16726C32.1225 2.19274 26.8412 0.00231058 21.2137 0C9.61794 0 0.181215 9.43376 0.176594 21.0289ZM6.81802 30.9934L6.40162 30.3324C4.65119 27.5492 3.72729 24.3329 3.72861 21.0302C3.73224 11.3926 11.5757 3.55169 21.2203 3.55169C25.891 3.55367 30.2805 5.3744 33.5819 8.67787C36.8833 11.9817 38.6999 16.3734 38.6987 21.0444C38.6944 30.682 30.8508 38.5239 21.2137 38.5239H21.2068C18.0689 38.5223 14.9914 37.6796 12.3075 36.0871L11.6687 35.7083L5.05092 37.4434L6.81802 30.9934Z" fill="url(#paint0_linear_2928_104)"/>
<path d="M15.9559 12.2373C15.5621 11.3621 15.1477 11.3445 14.7732 11.3291C14.4665 11.3159 14.116 11.3169 13.7658 11.3169C13.4152 11.3169 12.8457 11.4488 12.3642 11.9744C11.8823 12.5006 10.5244 13.7721 10.5244 16.3581C10.5244 18.9441 12.408 21.4435 12.6705 21.7946C12.9335 22.1449 16.3069 27.6217 21.6496 29.7286C26.0899 31.4795 26.9935 31.1313 27.9572 31.0435C28.921 30.956 31.0672 29.7723 31.5051 28.5449C31.9432 27.3177 31.9432 26.2657 31.8119 26.0459C31.6805 25.8268 31.3299 25.6953 30.8043 25.4326C30.2786 25.1698 27.6943 23.898 27.2125 23.7226C26.7306 23.5473 26.3802 23.4598 26.0296 23.9861C25.6791 24.5116 24.6725 25.6953 24.3657 26.0459C24.0592 26.3972 23.7524 26.441 23.2269 26.1781C22.7009 25.9143 21.0081 25.3599 18.9997 23.5694C17.4371 22.1761 16.3822 20.4556 16.0755 19.9293C15.7689 19.4038 16.0427 19.1189 16.3062 18.857C16.5424 18.6215 16.8321 18.2432 17.0951 17.9364C17.3572 17.6294 17.4447 17.4104 17.62 17.0599C17.7954 16.709 17.7076 16.402 17.5764 16.1391C17.4447 15.8762 16.4233 13.2766 15.9559 12.2373Z" fill="white"/>
</g>
<defs>
<linearGradient id="paint0_linear_2928_104" x1="2112.53" y1="4243.99" x2="2112.53" y2="0" gradientUnits="userSpaceOnUse">
<stop stop-color="#F9F9F9"/>
<stop offset="1" stop-color="white"/>
</linearGradient>
<clipPath id="clip0_2928_104">
<rect width="42.2506" height="42.5806" fill="white"/>
</clipPath>
</defs>
</svg>
