<svg width="91" height="23" viewBox="0 0 91 23" fill="none" xmlns="http://www.w3.org/2000/svg">
<path fill-rule="evenodd" clip-rule="evenodd" d="M17.8287 12.4263L18.8356 7.54711H6.75305C4.54062 7.52887 3.16115 8.55981 2.72633 10.6308L0.116577 22.9984H11.079C14.4347 22.9911 15.8892 22.3206 16.6719 18.0335H10.5572C10.2254 18.8071 9.69258 19.4444 9.03168 19.8581C8.37079 20.2718 7.61418 20.4417 6.86554 20.3445L8.46841 12.4683C8.89393 10.8698 10.112 10.1278 12.1225 10.2422C11.963 10.972 11.8015 11.6995 11.6382 12.4245L17.8287 12.4263Z" fill="black"/>
<path fill-rule="evenodd" clip-rule="evenodd" d="M36.464 7.54703H24.2801C22.0677 7.53243 20.6898 8.56063 20.2542 10.6289L17.6428 22.9984H28.606C31.9617 22.9911 33.792 22.4765 34.3696 18.0334H34.3617L36.464 7.54703ZM28.0778 18.0389C27.7453 18.8096 27.2128 19.4442 26.5531 19.856C25.8934 20.2678 25.1386 20.4368 24.3918 20.3398L25.9955 12.4645C26.4183 10.8667 27.6364 10.125 29.6496 10.2393L28.1297 17.7734L28.0762 18.0471L28.0778 18.0389Z" fill="black"/>
<path fill-rule="evenodd" clip-rule="evenodd" d="M39.9944 0L36.1233 18.6609C35.5089 21.699 36.3156 22.9991 38.2168 23H44.1863L44.3219 22.043H43.8345C42.3983 22.0655 41.893 21.0221 42.3185 18.9127L46.1969 0H39.9944Z" fill="black"/>
<path fill-rule="evenodd" clip-rule="evenodd" d="M62.8519 12.4262L63.8588 7.54703H51.7778C49.5654 7.53243 48.1875 8.56063 47.7511 10.6289L45.1414 22.9993H56.1037C59.4595 22.992 60.9139 22.3214 61.6966 18.0343H55.5812C55.2494 18.8079 54.7166 19.4452 54.0557 19.8589C53.3948 20.2726 52.6382 20.4425 51.8895 20.3453L53.4932 12.47C53.9161 10.8722 55.1341 10.1305 57.1473 10.2448L56.6622 12.4271L62.8519 12.4262Z" fill="black"/>
<path fill-rule="evenodd" clip-rule="evenodd" d="M80.3399 12.4262L81.3468 7.54703H69.2691C67.0566 7.53243 65.6788 8.56063 65.2423 10.6289L62.6326 22.9993H73.5942C76.9499 22.992 78.4044 22.3214 79.1871 18.0343H73.0716C72.7398 18.8079 72.207 19.4452 71.5461 19.8589C70.8852 20.2726 70.1286 20.4425 69.3799 20.3453L70.9836 12.47C71.4065 10.8722 72.6245 10.1305 74.6377 10.2448L74.1527 12.4271L80.3399 12.4262Z" fill="black"/>
<path fill-rule="evenodd" clip-rule="evenodd" d="M84.1825 1.19336L83.2522 5.56163H86.9909C87.6308 5.68021 88.2864 5.5215 88.8295 5.11654C89.3725 4.71157 89.7638 4.0895 89.9269 3.37202L90.3849 1.19427L84.1825 1.19336ZM82.8333 7.52224L80.4597 18.661C79.8454 21.699 80.652 22.9991 82.5532 23H88.5227L88.6584 22.043H88.1709C86.7348 22.0655 86.2295 21.0224 86.655 18.9137L89.0485 7.52315L82.8333 7.52224Z" fill="black"/>
</svg>
