<svg width="91" height="52" viewBox="0 0 91 52" fill="none" xmlns="http://www.w3.org/2000/svg">
<mask id="mask0_2558_3305" style="mask-type:luminance" maskUnits="userSpaceOnUse" x="0" y="0" width="91" height="52">
<path d="M90.3783 0H0.109985V52H90.3783V0Z" fill="white"/>
</mask>
<g mask="url(#mask0_2558_3305)">
<path d="M48.4661 6.854H47.3524V19.4995H43.6595V6.854H42.1355V20.8586C42.0183 22.3358 40.7287 23.3995 39.322 23.3404C37.8566 23.2813 36.7429 22.0995 36.6842 20.6222H35.1603C35.1603 22.8677 36.9774 24.7585 39.2048 24.8177C41.4321 24.9359 43.3664 23.2222 43.6009 20.9767H47.2937V24.8177H48.8177V20.9767C51.6313 20.7994 54.0345 18.9676 54.9138 16.2494C55.6757 14.1222 55.324 11.6994 54.0931 9.86762C52.8036 8.03581 50.6934 6.91309 48.4661 6.854ZM53.507 15.7767C52.8622 17.8449 50.9865 19.3222 48.8177 19.4995V8.39034C50.5176 8.56765 52.0416 9.45403 52.9208 10.9313C53.8586 12.4086 54.0931 14.1813 53.507 15.7767Z" fill="black"/>
<path d="M45.2435 0.4729C36.8615 0.4729 30.0034 7.38654 30.0034 15.8365C30.0034 24.2866 36.8615 31.2002 45.2435 31.2002C53.6256 31.2002 60.4837 24.2866 60.4837 15.8365C60.4837 7.38654 53.6256 0.4729 45.2435 0.4729ZM45.2435 31.082C36.9201 31.082 30.1793 24.2866 30.1793 15.8956C30.1793 7.50473 36.9201 0.650177 45.2435 0.650177C53.567 0.650177 60.3078 7.44563 60.3078 15.8365C60.3078 24.2274 53.567 31.082 45.2435 31.082Z" fill="black"/>
<path d="M17.5188 51.5272H18.5153L19.5703 48.9272H25.5491L26.6042 51.5272H27.6593L22.6184 38.9409L17.5188 51.5272ZM19.9807 47.9818L22.6184 41.4818L25.1975 47.9818H19.9807Z" fill="black"/>
<path d="M9.66528 51.5275H15.2924V50.5821H10.6618V46.5048H13.827V45.5002H10.6618V39.7093H15.2924V38.7048H9.66528V51.5275Z" fill="black"/>
<path d="M5.9716 48.6321C5.91299 49.8139 4.91652 50.7003 3.74421 50.7003C2.57189 50.7003 1.63404 49.7548 1.57542 48.573V47.9821H0.637573V48.573C0.696187 50.2866 2.04435 51.7048 3.80282 51.7048C5.50268 51.7048 6.96808 50.4048 7.02669 48.6321V38.7048H5.9716V48.6321Z" fill="black"/>
<path d="M36.1594 48.9864L30.7667 38.9409H30.0634V51.5272H31.0012V41.3045L36.4525 51.5272H37.1559V38.9409H36.1594V48.9864Z" fill="black"/>
<path d="M89.851 39.7093V38.7048H84.2825V51.5275H89.851V50.5821H85.2205V46.5048H88.3859V45.5002H85.2205V39.7093H89.851Z" fill="black"/>
<path d="M47.4139 38.6458H46.5933V51.4685H47.5311V48.8094C49.6413 48.7503 51.517 47.3321 52.2204 45.3231C52.7479 43.7866 52.5134 42.073 51.5756 40.7139C50.5791 39.414 49.0551 38.6458 47.4139 38.6458ZM51.3411 45.3231C50.755 46.9185 49.2309 47.9821 47.5311 47.8639V39.6503C48.8793 39.7094 50.1102 40.4185 50.8136 41.5413C51.5756 42.6049 51.7515 44.023 51.3411 45.3231Z" fill="black"/>
<path d="M81.6435 42.3094C80.9983 40.1822 79.0054 38.7049 76.778 38.6458H75.7229V51.4685H76.6608V48.8094H77.1297C77.7159 48.8094 78.302 48.7503 78.8296 48.514L80.764 51.4685H81.9949L79.6502 48.1003C81.5255 46.8003 82.2878 44.4958 81.6435 42.3094ZM77.0711 47.9231H76.6022V39.5912C78.4192 39.5321 80.0604 40.7139 80.7055 42.4276C81.3498 44.1412 80.764 46.0913 79.2985 47.2139C78.7123 47.6867 77.8917 47.9231 77.0711 47.9231Z" fill="black"/>
<path d="M58.9016 51.5275H64.5287V50.5821H59.8394V46.5048H63.0047V45.5002H59.8394V39.7093H64.5287V38.7048H58.9016V51.5275Z" fill="black"/>
<path d="M72.8511 42.3094C72.2064 40.1822 70.2134 38.7049 67.986 38.6458H66.9309V51.4685H67.8687V48.8094H68.3377C68.9239 48.8094 69.51 48.7503 70.0376 48.514L72.0305 51.4685H73.2614L70.9168 48.1003C72.7339 46.8003 73.5545 44.4958 72.8511 42.3094ZM68.2791 47.9231H67.8687V39.5912C69.6859 39.5321 71.3271 40.7139 71.9719 42.4276C72.6167 44.1412 72.0305 46.0913 70.6237 47.2139C69.9204 47.6867 69.0997 47.9231 68.2791 47.9231Z" fill="black"/>
<path d="M56.0273 38.6458H55.0895V51.4685H56.0273V38.6458Z" fill="black"/>
</g>
</svg>
