<svg width="98" height="50" viewBox="0 0 98 50" fill="none" xmlns="http://www.w3.org/2000/svg">
<mask id="mask0_2558_3321" style="mask-type:luminance" maskUnits="userSpaceOnUse" x="0" y="0" width="98" height="50">
<path d="M97.9566 0H0.53833V50H97.9566V0Z" fill="white"/>
</mask>
<g mask="url(#mask0_2558_3321)">
<path d="M5.45484 46.9911V49.1796H6.49413V49.8707H5.45484V51.8289H7.31072V51.5985H7.75613V52.5199H5.00943V47.1064H4.86096V46.4153H7.45919V47.2216H7.08802V46.9911H5.45484Z" fill="black"/>
<path d="M21.2656 46.6458L19.7066 50.3317V52.4051H19.2611V50.3317L17.8507 46.9914H17.7023V46.3003H18.0734L19.4097 49.5254L20.7459 46.3003H21.117V46.6458H21.2656Z" fill="black"/>
<path d="M31.9566 46.9911V49.1796H32.9958V49.8707H31.9566V51.8289H33.8125V51.5985H34.2578V52.5199H31.5854V47.1064H31.3627V46.4153H33.9609V47.2216H33.5897V46.9911H31.9566Z" fill="black"/>
<path d="M47.3241 52.6354H47.0272L46.0621 48.8343L45.097 52.6354H44.7259L43.3896 47.1066H43.2412V46.4155H43.6866L44.9486 51.4835L45.8394 47.9129V47.1066H46.2106V47.9129L47.1014 51.4835L48.3634 46.3003L48.7346 46.5307L47.3241 52.6354Z" fill="black"/>
<path d="M58.4586 46.9911V49.1796H59.4979V49.8707H58.4586V51.8289H60.3145V51.5985H60.7599V52.5199H58.0875V47.1064H57.939V46.4153H60.5372V47.2216H60.166V46.9911H58.4586Z" fill="black"/>
<path d="M72.4175 46.1851H72.7145L74.1991 52.2898L73.828 52.5201L73.4568 51.0228H71.7494L71.3782 52.405H71.0071V51.8291H71.0813L72.4175 46.1851ZM71.8236 50.3317H73.2341L72.4917 47.4521L71.8236 50.3317Z" fill="black"/>
<path d="M86.8916 51.5985C86.9658 51.8289 87.0407 51.8289 87.0407 51.8289H87.2631V52.5199H87.0407C86.8175 52.5199 86.6692 52.4048 86.5209 52.0593L85.927 50.677C85.7039 50.1011 85.6297 49.9859 85.11 49.9859H84.8134V52.5199H84.3678V47.1064H84.2195V46.4153H85.7039C86.5951 46.4153 87.0407 47.3367 87.0407 48.143C87.0407 48.9493 86.6692 49.6404 86.0012 49.8707C86.1495 49.9859 86.2978 50.3315 86.4468 50.5619L86.8916 51.5985ZM86.6692 48.143C86.6692 47.5671 86.3719 46.9911 85.778 46.9911H84.8134V49.1796H85.778C86.4468 49.2948 86.6692 48.719 86.6692 48.143Z" fill="black"/>
<path d="M37.2289 40.311C35.4473 40.311 34.7792 39.1593 34.7792 37.4314V31.0964C34.7792 29.3686 35.4473 28.2168 37.2289 28.2168H42.4254C44.207 28.2168 44.8751 29.3686 44.8751 31.0964V37.3163C44.8751 39.044 44.207 40.1959 42.4254 40.1959H37.2289V40.311ZM43.3905 31.6723C43.3905 30.9812 43.0935 30.5205 42.4254 30.5205H37.2289C36.5608 30.5205 36.2638 30.866 36.2638 31.6723V36.8556C36.2638 37.5467 36.5608 38.0074 37.2289 38.0074H42.4254C43.0935 38.0074 43.3905 37.6619 43.3905 36.8556V31.6723Z" fill="black"/>
<path d="M79.6919 40.311C77.9102 40.311 77.2422 39.1593 77.2422 37.4314V31.0964C77.2422 29.3686 77.9102 28.2168 79.6919 28.2168H84.8886C86.6703 28.2168 87.3384 29.3686 87.3384 31.0964V37.3163C87.3384 39.044 86.6703 40.1959 84.8886 40.1959H79.6919V40.311ZM85.8533 31.5571C85.8533 30.866 85.5567 30.4053 84.8886 30.4053H79.6919C79.0239 30.4053 78.7273 30.7508 78.7273 31.5571V36.8556C78.7273 37.5467 79.0239 38.0074 79.6919 38.0074H84.8886C85.5567 38.0074 85.8533 37.6619 85.8533 36.8556V31.5571Z" fill="black"/>
<path d="M7.31072 40.3103H12.6556V38.0067H7.31072C6.6426 38.0067 6.34567 37.6611 6.34567 36.8548V28.1008H4.86096V37.3156C4.86096 39.1585 5.52908 40.3103 7.31072 40.3103Z" fill="black"/>
<path d="M25.5735 40.3103L20.8967 29.1376L20.8225 28.9071C20.5998 28.3313 20.3771 28.1008 19.8574 28.1008C19.3378 28.1008 19.1151 28.4465 18.8924 28.9071L14.1414 40.3103H15.7002H15.923L19.8574 30.9805L23.7919 40.3103H23.9404H25.5735Z" fill="black"/>
<path d="M32.1782 28.2168H31.9555L28.0211 37.5467L24.0866 28.2168H23.9381H22.3792L27.056 39.3896L27.1302 39.5048C27.3529 40.0807 27.5756 40.311 28.0953 40.311C28.6149 40.311 28.8376 39.9655 29.0603 39.5048L33.8114 28.2168H32.1782Z" fill="black"/>
<path d="M68.4793 40.3103L63.8025 29.1376L63.7283 28.9071C63.5056 28.3313 63.2829 28.1008 62.7633 28.1008C62.2436 28.1008 62.0209 28.4465 61.7982 28.9071L57.0471 40.3103H58.6061H58.8288L62.7633 30.9805L66.6977 40.3103H66.8461H68.4793Z" fill="black"/>
<path d="M72.7872 28.216H72.6388H71.6737H70.189H69.2239H69.0755H66.1803V30.5197H69.0755H69.2239C69.892 30.5197 70.189 30.8653 70.189 31.6716V40.3103H70.2632H71.5994H71.6737V31.5564C71.6737 30.8653 71.9706 30.4045 72.6388 30.4045H72.7872H75.6826V28.1008H72.7872V28.216Z" fill="black"/>
<path d="M55.4153 32.4786V31.0964C55.4153 29.3686 54.7471 28.2168 52.9655 28.2168H47.769H46.2843V30.5205V33.1697V40.311H47.769V35.3582H51.555L53.6336 40.311H53.782H55.341L53.2624 35.3582H53.4109C54.8956 35.1278 55.4153 34.0911 55.4153 32.4786ZM52.9655 33.1697H47.769V30.5205H48.6599H52.9655C53.6336 30.5205 53.9305 30.866 53.9305 31.6723V32.0179C54.0048 32.709 53.6336 33.1697 52.9655 33.1697Z" fill="black"/>
<path d="M94.9086 9.09619L93.2011 2.53076C93.0528 1.83965 92.6814 1.26374 92.2358 1.03338L88.0792 -1.61583C87.8561 -1.73102 87.6336 -1.84619 87.3363 -1.84619C87.1139 -1.84619 86.8915 -1.73102 86.6683 -1.61583L82.4369 1.03338C81.9913 1.26374 81.6206 1.83965 81.4723 2.53076L79.6906 8.98097C79.5416 9.67216 79.4674 10.4784 79.6906 11.1694L81.1008 16.5831L81.3974 17.6197C81.5464 18.3108 81.9172 18.8868 82.3628 19.1171C86.52 21.8815 86.52 21.8815 86.5942 21.8815C86.8166 21.9967 87.0398 22.1119 87.2622 22.1119C87.4853 22.1119 87.7078 21.9967 87.9302 21.8815L92.0875 19.2323C92.5331 19.0019 92.9038 18.426 93.0528 17.735L94.7604 11.2847C95.0569 10.4784 95.0569 9.67205 94.9086 9.09619ZM92.1616 12.8973C92.1616 13.0124 92.0875 13.2428 92.0133 13.358L89.4153 17.3894C89.3412 17.5045 89.2663 17.6197 89.118 17.6197H85.4064C85.3322 17.6197 85.1839 17.5045 85.1098 17.3894L82.5111 13.358C82.4369 13.2428 82.3628 13.1276 82.3628 12.8973V7.13808C82.3628 7.0229 82.4369 6.79253 82.5111 6.67735L85.1098 2.64595C85.1839 2.53076 85.2581 2.41558 85.4064 2.41558H88.45C88.5983 2.41558 88.7473 2.53076 88.8214 2.76112C88.8956 2.99149 88.8956 3.22186 88.8214 3.33704C88.6724 3.79777 88.5983 4.14332 88.5983 4.60405C88.5983 6.3318 89.4895 7.714 90.6031 7.714C90.8997 7.714 91.197 7.59881 91.4194 7.48363C91.4936 7.48363 91.5677 7.48363 91.5677 7.48363C91.6419 7.48363 91.7167 7.48363 91.7909 7.59881C91.9392 7.71399 92.0133 7.94434 92.0133 8.17478V12.8973H92.1616Z" fill="black"/>
</g>
</svg>
