<svg width="151" height="36" viewBox="0 0 151 36" fill="none" xmlns="http://www.w3.org/2000/svg">
<path fill-rule="evenodd" clip-rule="evenodd" d="M63.4114 1.46668C61.3422 4.02992 59.0123 7.75321 55.7717 13.6738C52.1522 20.2871 52.8454 19.2811 47.0904 26.2709C44.645 29.2407 42.5352 32.013 42.4014 32.4319C42.2677 32.8508 42.1215 33.2515 42.0896 33.3602C42.0577 33.4689 42.0849 34.2523 42.3052 34.4941C42.5256 34.7359 42.671 34.8411 42.8163 34.9078C43.6883 35.5289 45.5263 32.8089 45.5525 32.7772C45.8681 32.3951 45.9164 32.3728 46.1588 32.0512C46.9337 31.341 46.8418 31.4652 47.4261 30.614C48.0103 29.7628 48.6506 28.8397 48.8494 28.5625C49.726 27.3398 54.5879 17.5137 54.5879 17.5137C54.7332 17.3679 54.898 17.2011 54.898 17.2011C55.0239 16.852 55.0239 16.8468 55.0239 16.5081C55.0239 16.5081 55.0239 16.5656 55.1692 15.9922C55.502 15.9922 55.9947 15.294 59.4564 11.4493C60.7751 9.98457 61.5638 8.68764 61.7091 8.42592C61.8543 8.1642 61.9843 8.04314 62.143 7.81477C63.9145 5.26494 64.4703 3.92744 64.4703 3.92744L64.7534 3.44423C64.7534 3.44423 65.2362 2.9875 65.48 2.42966C66.6624 -0.275965 65.3216 -0.899837 63.4114 1.46668ZM34.4171 1.42851C32.9408 2.5858 29.8235 6.65369 28.0981 9.67504C27.5165 10.6934 26.0618 13.3062 24.8654 15.4815C23.6691 17.6568 22.2484 20.0267 21.7083 20.7483C20.7715 21.9994 20.6675 22.049 19.4572 21.8158C18.2469 21.5826 18.1881 21.5713 18.1881 21.5713L18.3608 20.1602C18.6698 17.6344 20.2225 12.4044 22.0469 7.74324C22.7994 5.82072 23.3026 4.36456 23.3543 3.96011C23.3784 3.77095 23.4953 3.35274 23.6139 3.03083C23.8615 2.35847 23.6142 1.72462 23.1043 1.72462C22.7561 1.72462 22.4507 2.20199 21.4496 4.31056C20.7872 5.70619 18.3114 9.66403 14.9127 14.7606C10.5351 21.3243 11.2931 20.6736 7.91337 20.7703C5.48608 20.8397 4.74112 20.9973 3.55494 21.693L2.12403 22.5318C2.12403 22.5318 0.716075 24.0439 0.816126 25.2646C0.918596 26.5149 1.99004 27.5077 2.62019 27.6707C4.16736 28.0714 5.00707 28.0026 5.52532 27.4327C5.7404 27.1964 6.08222 26.9619 6.2851 26.912C7.0536 26.7225 8.85481 25.1494 10.0244 23.6454C10.6926 22.786 11.3411 22.203 11.3411 22.203C11.3411 22.203 12.6528 22.5851 14.9084 22.9026C16.3131 23.1 16.802 23.3428 17.4522 24.1661C18.3803 25.342 19.0319 25.2901 20.7593 23.903C21.3453 23.4326 22.1248 23.0477 22.4916 23.0477C22.8587 23.0477 23.5127 22.8885 23.9452 22.6942C24.5565 22.419 24.8404 22.4572 25.2224 22.8661C25.8447 23.5326 26.3632 23.5285 27.5145 22.8489C28.0839 22.5129 28.751 22.3891 29.2672 22.5232C30.2037 22.7664 31.7703 21.8949 33.2245 20.3211C34.2662 19.1937 36.166 17.8731 36.3807 18.1269C36.6019 18.3886 34.9685 20.6351 34.7223 20.9842C34.6778 21.151 34.617 21.2315 34.8725 21.5341C35.2969 22.0359 35.3983 22.0366 36.0395 21.5396C36.4255 21.2401 37.0234 20.544 37.3678 19.9927C38.002 18.9778 40.4258 16.8571 40.9516 16.8571C41.1252 16.8571 41.165 17.5054 41.0528 18.5055C40.9124 19.7581 40.9737 20.2578 41.3077 20.5859C41.6045 20.8776 41.6624 20.957 41.9443 20.8071C42.0984 20.7359 42.3686 20.5299 42.6939 20.2963C43.5429 19.842 45.4542 18.8034 45.6708 18.1644C45.7687 17.8748 45.8303 17.9281 45.8452 18.3154C45.858 18.6507 43.9757 21.1458 41.5644 23.9901C36.2732 30.2305 35.6951 32.3951 35.6951 32.3951C35.5498 32.7391 35.5498 32.7391 35.5498 32.7391C35.5498 32.7391 35.3727 33.1215 35.6157 33.409C36.4302 34.3727 39.0606 32.3752 41.1316 29.2194C42.7473 26.7576 45.7327 21.6039 46.3155 20.2706C46.6143 19.5865 47.1534 19.1655 48.2605 18.7518C50.8523 17.7833 55.0529 16.1858 54.8785 15.6483C54.748 15.2459 53.7159 15.8202 52.8439 15.8254C52.2713 15.9922 51.1436 16.1411 50.6641 16.3361C50.1845 16.5311 49.4979 16.7736 49.1386 16.9665C48.7791 17.1591 48.4006 17.2172 48.2977 17.0951C47.9992 16.7423 48.9201 16.1642 49.2107 15.8202L49.7348 15.1375C49.9374 14.7885 49.99 13.9823 50.8974 13.1228C52.4123 11.689 55.8307 6.91267 57.2532 4.24281C58.5222 1.8615 58.7588 0.595875 57.9697 0.410502C57.003 0.183514 53.8737 4.32845 50.3733 10.4733C48.6256 13.5411 46.0135 16.7031 44.0756 18.0959C43.1243 18.7797 42.2634 19.2409 42.1622 19.1212C42.0608 19.0015 42.1448 18.358 42.3483 17.6915C42.6378 16.7447 42.6421 16.3708 42.3686 15.9808C41.8556 15.2493 41.0394 15.3659 39.4327 16.4008C38.3401 17.1044 37.9247 17.2255 37.6637 16.9166C36.8653 15.9719 35.162 16.8104 32.2607 19.5772C30.4603 21.2944 29.8819 21.6431 29.8819 21.0124C29.8819 20.3067 29.8819 20.3369 30.3179 19.5772C30.4632 18.7817 30.4103 19.3103 30.3179 17.7118C30.3179 16.852 30.383 17.0431 30.1531 16.8025C29.8079 16.4412 29.3881 17.4177 29.0553 17.3146C28.1066 17.0212 25.5479 19.0029 25.1532 20.3369C25.0218 20.7809 23.5211 21.4739 23.284 21.2002C23.1959 21.0987 23.8266 19.8764 24.7419 18.3731C25.9784 16.3426 28.138 12.3968 28.138 12.1678C28.138 12.0567 28.6611 11.2265 29.3006 10.3226C29.94 9.41882 30.4632 8.56865 30.4632 8.43314C30.4632 7.77075 34.5118 2.46508 35.4771 1.86219C35.9169 1.58774 36.2764 1.1348 36.2764 0.85588C36.2764 0.121953 35.9605 0.219281 34.4171 1.42851ZM55.4116 4.21805C54.8672 5.02179 54.2124 6.06662 53.9569 6.53951C53.7014 7.0124 53.2157 7.77109 52.8774 8.22576C52.5393 8.68042 52.2664 9.2221 52.2713 9.42948C52.2803 9.82396 54.5641 6.89306 54.5792 6.46729C54.5841 6.33316 54.8986 5.86887 55.2785 5.43553C56.1917 4.39379 57.055 2.75639 56.6908 2.75639C56.5318 2.75639 55.9563 3.41431 55.4116 4.21805ZM61.9657 5.07785C59.4881 8.5064 57.8915 11.2512 58.1781 11.59C58.3859 11.8359 63.889 3.84627 63.889 3.2984C63.889 2.71305 63.2422 3.31147 61.9657 5.07785ZM17.6016 13.1349C16.7325 14.5202 15.2072 16.8021 14.2119 18.206C12.1776 21.0767 12.186 21.1138 14.9583 21.4695L16.7473 21.6989L16.9499 20.2809C17.1424 18.932 17.9768 15.704 18.9799 12.4281C19.2334 11.6003 19.3828 10.8537 19.3115 10.7694C19.24 10.6851 18.4707 11.7496 17.6016 13.1349ZM27.1303 19.7918C26.1007 21.0103 25.9464 21.3718 26.2856 21.7728C26.7405 22.3114 29.3006 19.7715 29.3006 18.7817C29.3006 18.1472 28.0144 18.7459 27.1303 19.7918ZM8.46039 21.7064C8.22792 21.8388 7.45296 22.1559 6.61209 22.2433C4.64142 22.4476 2.91578 23.4807 2.67861 24.5988C2.20658 26.824 3.62848 27.0922 6.2104 25.2646C8.27 23.8067 9.68435 22.2347 9.40968 21.7085C9.39055 21.323 9.09989 21.4695 8.46039 21.7064ZM18.5462 23.3916C18.5462 23.5808 18.5462 23.903 19.0567 23.903C19.7089 23.903 19.9995 23.5584 19.8542 23.3865C19.7088 23.0426 19.2485 23.0477 18.9994 23.0477C18.7503 23.0477 18.5462 23.2025 18.5462 23.3916ZM40.3192 27.0963C37.035 31.254 36.5525 31.9897 37.1091 31.9897C37.7986 31.9897 42.377 25.6808 42.0062 25.2419C41.9431 25.1673 41.1839 26.0016 40.3192 27.0963ZM47.12 27.7894C43.3153 32.7422 43.1374 33.0214 43.7893 33.0214C44.1044 33.0214 46.7837 29.7817 47.7714 28.2065C49.6438 25.2206 49.2749 24.9843 47.12 27.7894Z" fill="black"/>
<path d="M98.1431 34.0326C97.4861 34.0677 96.9548 33.942 96.5493 33.6555C96.1485 33.3687 95.9224 32.9442 95.871 32.3819C95.8204 31.8288 95.9459 31.3831 96.2475 31.0448C96.5537 30.7062 97.0214 30.52 97.6505 30.4864C98.0512 30.4649 98.4007 30.5233 98.699 30.6614C99.0015 30.7947 99.2371 30.9899 99.4058 31.2471C99.5787 31.4993 99.6802 31.7904 99.7104 32.1204L99.7518 32.5735L97.0746 32.7167C97.1382 32.9001 97.267 33.0287 97.4611 33.1024C97.6551 33.176 97.9129 33.2043 98.2344 33.1871C98.4535 33.1754 98.6754 33.1448 98.9004 33.0954C99.13 33.0458 99.3257 32.9839 99.4875 32.9099L99.5614 33.7185C99.3954 33.7974 99.1838 33.8648 98.9266 33.9206C98.6746 33.9808 98.4134 34.0181 98.1431 34.0326ZM98.5214 31.8688C98.4862 31.6885 98.3986 31.5508 98.2588 31.4555C98.119 31.3603 97.9349 31.3187 97.7066 31.331C97.4829 31.3429 97.3107 31.4059 97.19 31.5197C97.0688 31.6289 97.007 31.7723 97.0045 31.9499L98.5214 31.8688ZM102.143 35.1005C101.994 35.1085 101.837 35.1052 101.672 35.0907C101.507 35.0808 101.383 35.0594 101.301 35.0265L101.217 34.1133C101.357 34.1618 101.514 34.1815 101.686 34.1723C101.84 34.164 101.955 34.1228 102.033 34.0486C102.116 33.9788 102.176 33.8705 102.214 33.7237L102.278 33.4961L100.537 30.437L101.767 30.3712L102.84 32.4994L103.466 30.2803L104.696 30.2145L103.632 33.788C103.507 34.2149 103.325 34.5352 103.087 34.7487C102.854 34.962 102.539 35.0793 102.143 35.1005ZM107.961 33.5073C107.304 33.5425 106.772 33.4168 106.367 33.1302C105.966 32.8435 105.74 32.4189 105.689 31.8566C105.638 31.3036 105.764 30.8579 106.065 30.5195C106.371 30.1809 106.839 29.9948 107.468 29.9611C107.869 29.9397 108.218 29.998 108.517 30.1362C108.819 30.2694 109.055 30.4646 109.223 30.7218C109.396 30.9741 109.498 31.2652 109.528 31.5951L109.569 32.0483L106.892 32.1915C106.956 32.3749 107.085 32.5034 107.279 32.5771C107.473 32.6508 107.731 32.679 108.052 32.6618C108.271 32.6501 108.493 32.6195 108.718 32.5701C108.948 32.5205 109.143 32.4587 109.305 32.3846L109.379 33.1933C109.213 33.2722 109.001 33.3395 108.744 33.3953C108.492 33.4555 108.231 33.4928 107.961 33.5073ZM108.339 31.3435C108.304 31.1633 108.216 31.0255 108.076 30.9303C107.937 30.835 107.753 30.7935 107.524 30.8057C107.301 30.8177 107.128 30.8806 107.008 30.9945C106.887 31.1037 106.825 31.2471 106.822 31.4247L108.339 31.3435ZM110.634 29.8968L111.865 29.8309L112.578 31.7192L112.941 29.7734L113.934 29.7203L114.647 31.6085L115.01 29.6627L116.24 29.5968L115.421 33.0031L114.316 33.0622L113.571 31.2107L113.17 33.1235L112.066 33.1826L110.634 29.8968ZM119.922 32.8674C119.265 32.9025 118.734 32.7768 118.328 32.4903C117.927 32.2035 117.701 31.779 117.65 31.2167C117.599 30.6636 117.725 30.2179 118.026 29.8796C118.332 29.5409 118.8 29.3548 119.429 29.3212C119.83 29.2997 120.18 29.3581 120.478 29.4962C120.78 29.6295 121.016 29.8247 121.185 30.0819C121.357 30.3341 121.459 30.6252 121.489 30.9552L121.531 31.4083L118.853 31.5515C118.917 31.7349 119.046 31.8635 119.24 31.9372C119.434 32.0108 119.692 32.0391 120.013 32.0219C120.232 32.0102 120.454 31.9796 120.679 31.9302C120.909 31.8806 121.104 31.8187 121.266 31.7447L121.34 32.5533C121.174 32.6322 120.963 32.6996 120.705 32.7554C120.453 32.8156 120.192 32.8529 119.922 32.8674ZM120.3 30.7036C120.265 30.5233 120.177 30.3856 120.038 30.2903C119.898 30.1951 119.714 30.1535 119.485 30.1658C119.262 30.1777 119.089 30.2406 118.969 30.3545C118.848 30.4637 118.786 30.6071 118.783 30.7847L120.3 30.7036ZM124.316 32.6323C123.896 32.6547 123.547 32.573 123.268 32.3871C122.993 32.1964 122.839 31.9197 122.806 31.5572C122.771 31.1808 122.869 30.8861 123.097 30.673C123.33 30.4551 123.68 30.3336 124.146 30.3087C124.327 30.299 124.511 30.3102 124.697 30.3423C124.882 30.3697 125.043 30.4125 125.179 30.4706L125.173 30.4009C125.14 30.043 124.83 29.8798 124.243 29.9112C123.833 29.9332 123.465 30.0322 123.139 30.2085L123.062 29.365C123.205 29.2873 123.395 29.221 123.634 29.1663C123.872 29.1068 124.121 29.0701 124.382 29.0562C125.007 29.0227 125.489 29.123 125.829 29.357C126.173 29.5861 126.365 29.9238 126.406 30.3699L126.592 32.4054L125.439 32.4671L125.413 32.1813C125.298 32.3089 125.148 32.4126 124.963 32.4926C124.779 32.5725 124.563 32.6191 124.316 32.6323ZM124.611 31.86C124.755 31.8522 124.888 31.8171 125.008 31.7546C125.129 31.6875 125.217 31.6057 125.274 31.5093L125.247 31.2165C125.034 31.0924 124.8 31.0373 124.544 31.051C124.381 31.0597 124.258 31.1013 124.176 31.1757C124.094 31.2502 124.059 31.3548 124.071 31.4896C124.082 31.615 124.133 31.7104 124.224 31.7756C124.318 31.8406 124.447 31.8687 124.611 31.86ZM127.788 28.979L128.976 28.9155L129.014 29.3337C129.131 29.178 129.305 29.0543 129.535 28.9626C129.765 28.8662 130.025 28.8103 130.313 28.7949L130.399 29.7359C130.092 29.7524 129.823 29.8111 129.594 29.9122C129.369 30.0129 129.22 30.154 129.148 30.3353L129.324 32.2593L128.093 32.3251L127.788 28.979Z" fill="black"/>
</svg>
