<svg width="94" height="15" viewBox="0 0 94 15" fill="none" xmlns="http://www.w3.org/2000/svg">
<mask id="mask0_2618_2311" style="mask-type:luminance" maskUnits="userSpaceOnUse" x="0" y="0" width="94" height="15">
<path d="M93.6493 0.654785H0.693115V14.8716H93.6493V0.654785Z" fill="white"/>
</mask>
<g mask="url(#mask0_2618_2311)">
<path d="M18.6131 14.1881H19.6393L20.7258 11.767H26.8826L27.9691 14.1881H29.0556L23.8645 2.46777L18.6131 14.1881ZM21.1483 10.8866L23.8645 4.83384L26.5204 10.8866H21.1483Z" fill="black"/>
<path d="M10.5264 14.1895H16.3211V13.3091H11.5525V9.51233H14.812V8.57688H11.5525V3.18439H16.3211V2.24902H10.5264V14.1895Z" fill="black"/>
<path d="M6.72928 11.4935C6.66892 12.594 5.64278 13.4194 4.43556 13.4194C3.22834 13.4194 2.26256 12.539 2.2022 11.4385V10.8882H1.23642V11.4385C1.29678 13.0342 2.68508 14.3548 4.49592 14.3548C6.2464 14.3548 7.75543 13.1442 7.81579 11.4935V2.24927H6.72928V11.4935Z" fill="black"/>
<path d="M37.8168 11.8221L32.2636 2.46777H31.5393V14.1881H32.505V4.66873L38.1187 14.1881H38.843V2.46777H37.8168V11.8221Z" fill="black"/>
<path d="M93.1097 3.18439V2.24902H87.3754V14.1895H93.1097V13.3091H88.3413V9.51233H91.6009V8.57688H88.3413V3.18439H93.1097Z" fill="black"/>
<path d="M49.4017 2.19238H48.5566V14.1329H49.5224V11.6567C51.6954 11.6017 53.627 10.2811 54.3513 8.41027C54.8945 6.97958 54.6531 5.38385 53.6873 4.11826C52.6612 2.90773 51.0918 2.19238 49.4017 2.19238ZM53.4459 8.41027C52.8423 9.89596 51.2728 10.8864 49.5224 10.7763V3.12783C50.9107 3.18281 52.1783 3.84318 52.9026 4.88867C53.6873 5.8791 53.8684 7.19967 53.4459 8.41027Z" fill="black"/>
<path d="M84.6543 5.60394C83.9899 3.62308 81.9376 2.24744 79.644 2.19238H78.5574V14.1329H79.5232V11.6567H80.0061C80.6097 11.6567 81.2133 11.6017 81.7566 11.3816L83.7487 14.1329H85.0162L82.6016 10.9964C84.5328 9.78591 85.3178 7.63994 84.6543 5.60394ZM79.9457 10.8314H79.4628V3.07277C81.334 3.01778 83.024 4.11826 83.6883 5.71399C84.3518 7.30972 83.7487 9.12562 82.2395 10.171C81.6359 10.6113 80.7908 10.8314 79.9457 10.8314Z" fill="black"/>
<path d="M61.2369 14.1895H67.0316V13.3091H62.2027V9.51233H65.4622V8.57688H62.2027V3.18439H67.0316V2.24902H61.2369V14.1895Z" fill="black"/>
<path d="M75.5997 5.60394C74.9357 3.62308 72.8834 2.24744 70.5898 2.19238H69.5032V14.1329H70.469V11.6567H70.9519C71.5555 11.6567 72.1591 11.6017 72.7024 11.3816L74.7546 14.1329H76.0222L73.6078 10.9964C75.479 9.78591 76.324 7.63994 75.5997 5.60394ZM70.8915 10.8314H70.469V3.07277C72.3402 3.01778 74.0303 4.11826 74.6943 5.71399C75.3583 7.30972 74.7546 9.12562 73.306 10.171C72.5817 10.6113 71.7366 10.8314 70.8915 10.8314Z" fill="black"/>
<path d="M58.2793 2.19238H57.3135V14.1329H58.2793V2.19238Z" fill="black"/>
</g>
</svg>
