<svg width="119" height="47" viewBox="0 0 119 47" fill="none" xmlns="http://www.w3.org/2000/svg">
<mask id="mask0_2558_2644" style="mask-type:luminance" maskUnits="userSpaceOnUse" x="0" y="0" width="119" height="47">
<path d="M119 0H0V46.9737H119V0Z" fill="white"/>
</mask>
<g mask="url(#mask0_2558_2644)">
<path d="M1.0834 42.4614V44.3466H2.46795V44.9419H1.0834V46.6287H3.55582V46.4303H4.14919V47.224H0.490029V42.5606H0.292236V41.9653H3.75361V42.6599H3.25913V42.4614H1.0834Z" fill="black"/>
<path d="M22.1463 42.1642L20.0695 45.3393V47.1253H19.476V45.3393L17.597 42.4618H17.3993V41.8665H17.8938L19.6739 44.6447L21.454 41.8665H21.9485V42.1642H22.1463Z" fill="black"/>
<path d="M36.3891 42.4614V44.3466H37.7736V44.9419H36.3891V46.6287H38.8615V46.4303H39.4549V47.224H35.8946V42.5606H35.5979V41.9653H39.0593V42.6599H38.5648V42.4614H36.3891Z" fill="black"/>
<path d="M56.8617 47.3238H56.4661L55.1805 44.0494L53.8948 47.3238H53.4004L51.6202 42.5611H51.4225V41.9658H52.0158L53.6971 46.3315L54.8839 43.2557V42.5611H55.3783V43.2557L56.5651 46.3315L58.2463 41.8665L58.7408 42.065L56.8617 47.3238Z" fill="black"/>
<path d="M71.6951 42.4614V44.3466H73.0796V44.9419H71.6951V46.6287H74.1675V46.4303H74.7609V47.224H71.2006V42.5606H71.0028V41.9653H74.4642V42.6599H73.9697V42.4614H71.6951Z" fill="black"/>
<path d="M90.291 41.7669H90.6866L92.6645 47.0257L92.17 47.2241L91.6755 45.9342H89.4009L88.9065 47.125H88.412V46.6288H88.5109L90.291 41.7669ZM89.4998 45.3389H91.3789L90.3899 42.8584L89.4998 45.3389Z" fill="black"/>
<path d="M109.574 46.4303C109.672 46.6287 109.772 46.6287 109.772 46.6287H110.069V47.224H109.772C109.475 47.224 109.277 47.1249 109.08 46.8272L108.289 45.6365C107.991 45.1404 107.893 45.0412 107.2 45.0412H106.805V47.224H106.211V42.5606H106.014V41.9653H107.991C109.179 41.9653 109.772 42.759 109.772 43.4536C109.772 44.1482 109.277 44.7435 108.387 44.9419C108.585 45.0412 108.782 45.3388 108.981 45.5373L109.574 46.4303ZM109.277 43.4536C109.277 42.9575 108.881 42.4614 108.09 42.4614H106.805V44.3466H108.09C108.981 44.4458 109.277 43.9498 109.277 43.4536Z" fill="black"/>
<path d="M43.4127 36.7072C41.0392 36.7072 40.1492 35.715 40.1492 34.2266V28.7694C40.1492 27.2811 41.0392 26.2888 43.4127 26.2888H50.3355C52.709 26.2888 53.5991 27.2811 53.5991 28.7694V34.1275C53.5991 35.6158 52.709 36.608 50.3355 36.608H43.4127V36.7072ZM51.6212 29.2655C51.6212 28.6702 51.2256 28.2733 50.3355 28.2733H43.4127C42.5226 28.2733 42.127 28.571 42.127 29.2655V33.7306C42.127 34.3259 42.5226 34.7228 43.4127 34.7228H50.3355C51.2256 34.7228 51.6212 34.4251 51.6212 33.7306V29.2655Z" fill="black"/>
<path d="M99.9822 36.7072C97.6086 36.7072 96.7186 35.715 96.7186 34.2266V28.7694C96.7186 27.2811 97.6086 26.2888 99.9822 26.2888H106.905C109.279 26.2888 110.169 27.2811 110.169 28.7694V34.1275C110.169 35.6158 109.279 36.608 106.905 36.608H99.9822V36.7072ZM108.19 29.1663C108.19 28.571 107.795 28.1741 106.905 28.1741H99.9822C99.0922 28.1741 98.6971 28.4717 98.6971 29.1663V33.7306C98.6971 34.3259 99.0922 34.7228 99.9822 34.7228H106.905C107.795 34.7228 108.19 34.4251 108.19 33.7306V29.1663Z" fill="black"/>
<path d="M3.55582 36.7064H10.6763V34.722H3.55582C2.66575 34.722 2.27017 34.4244 2.27017 33.7298V26.1888H0.292236V34.1267C0.292236 35.7143 1.18231 36.7064 3.55582 36.7064Z" fill="black"/>
<path d="M27.8854 36.7064L21.6549 27.0819L21.556 26.8834C21.2594 26.3873 20.9627 26.1888 20.2704 26.1888C19.5781 26.1888 19.2814 26.4866 18.9847 26.8834L12.6554 36.7064H14.7321H15.0289L20.2704 28.6695L25.5119 36.7064H25.7097H27.8854Z" fill="black"/>
<path d="M36.6843 26.2888H36.3876L31.1461 34.3259L25.9046 26.2888H25.7067H23.6299L29.8604 35.9134L29.9593 36.0127C30.256 36.5087 30.5526 36.7072 31.2449 36.7072C31.9372 36.7072 32.2339 36.4095 32.5306 36.0127L38.86 26.2888H36.6843Z" fill="black"/>
<path d="M85.0446 36.7064L78.8142 27.0819L78.7153 26.8834C78.4186 26.3873 78.1219 26.1888 77.4296 26.1888C76.7373 26.1888 76.4406 26.4866 76.144 26.8834L69.8146 36.7064H71.8914H72.1881L77.4296 28.6695L82.6711 36.7064H82.8689H85.0446Z" fill="black"/>
<path d="M90.7839 26.2881H90.5862H89.3005H87.3225H86.0369H85.8391H81.9822V28.2726H85.8391H86.0369C86.927 28.2726 87.3225 28.5702 87.3225 29.2648V36.7064H87.4214H89.2016H89.3005V29.1655C89.3005 28.5702 89.6961 28.1733 90.5862 28.1733H90.7839H94.6412V26.1888H90.7839V26.2881Z" fill="black"/>
<path d="M67.6405 29.9601V28.7694C67.6405 27.2811 66.7504 26.2888 64.3769 26.2888H57.4542H55.4762V28.2733V30.5554V36.7072H57.4542V32.4407H62.4979L65.267 36.7072H65.4647H67.5416L64.7725 32.4407H64.9703C66.9482 32.2422 67.6405 31.3492 67.6405 29.9601ZM64.3769 30.5554H57.4542V28.2733H58.6409H64.3769C65.267 28.2733 65.6626 28.571 65.6626 29.2655V29.5632C65.7614 30.1585 65.267 30.5554 64.3769 30.5554Z" fill="black"/>
<path d="M120.254 9.81776L117.979 4.1621C117.782 3.56676 117.287 3.07066 116.693 2.87221L111.156 0.5901C110.859 0.490877 110.562 0.391663 110.166 0.391663C109.87 0.391663 109.574 0.490877 109.276 0.5901L103.639 2.87221C103.046 3.07066 102.552 3.56676 102.354 4.1621L99.9806 9.71851C99.7821 10.3139 99.6833 11.0084 99.9806 11.6037L101.859 16.2672L102.254 17.1602C102.453 17.7555 102.947 18.2517 103.54 18.4501C109.079 20.8314 109.079 20.8314 109.178 20.8314C109.474 20.9306 109.771 21.0299 110.067 21.0299C110.365 21.0299 110.661 20.9306 110.957 20.8314L116.496 18.5494C117.089 18.3509 117.583 17.8548 117.782 17.2595L120.057 11.703C120.452 11.0084 120.452 10.3138 120.254 9.81776ZM116.595 13.0921C116.595 13.1913 116.496 13.3898 116.397 13.489L112.936 16.9618C112.837 17.061 112.737 17.1602 112.54 17.1602H107.595C107.496 17.1602 107.299 17.061 107.2 16.9618L103.738 13.489C103.639 13.3898 103.54 13.2905 103.54 13.0921V8.13099C103.54 8.03177 103.639 7.83332 103.738 7.7341L107.2 4.26133C107.299 4.1621 107.398 4.06288 107.595 4.06288H111.65C111.847 4.06288 112.046 4.1621 112.145 4.36054C112.243 4.55899 112.243 4.75743 112.145 4.85666C111.946 5.25354 111.847 5.55121 111.847 5.9481C111.847 7.43644 113.035 8.6271 114.518 8.6271C114.913 8.6271 115.309 8.52787 115.606 8.42865C115.705 8.42865 115.803 8.42865 115.803 8.42865C115.902 8.42865 116.002 8.42865 116.101 8.52787C116.298 8.6271 116.397 8.82553 116.397 9.02403V13.0921H116.595Z" fill="black"/>
</g>
</svg>
